<svg id="svg" version="1.1" xmlns="http://www.w3.org/2000/svg" viewBox="0 0 509 355" style="display: block;"><path d="M0 0 C0.69746338 0.19682373 1.39492676 0.39364746 2.11352539 0.59643555 C6.86902543 2.02974816 10.82711834 4.0296553 15.0625 6.625 C13.00911139 13.13970776 10.56715317 19.41230029 7.875 25.6875 C7.32295898 26.9859082 7.32295898 26.9859082 6.75976562 28.31054688 C5.86377408 30.41670883 4.96465345 32.52147192 4.0625 34.625 C-0.89813192 34.02004489 -5.43600337 32.95720931 -10.25 31.5625 C-24.42254279 27.81748456 -39.68924025 27.79359586 -52.7109375 35.203125 C-55.246653 36.893602 -57.59603541 38.67584429 -59.9375 40.625 C-60.59621094 41.1715625 -61.25492188 41.718125 -61.93359375 42.28125 C-69.76286374 49.42019726 -73.32679358 58.98026427 -74.15625 69.36328125 C-74.51761719 80.73129069 -72.63215335 92.2348678 -65.9375 101.625 C-65.14085937 102.76388672 -65.14085937 102.76388672 -64.328125 103.92578125 C-57.28874016 112.8754265 -45.95110949 118.22324518 -34.77734375 119.9609375 C-19.62243206 120.27212665 -6.99690931 112.38276138 5.1875 104.375 C6.18414673 103.72023682 6.18414673 103.72023682 7.20092773 103.05224609 C10.68118794 100.86137184 10.68118794 100.86137184 13.0625 97.625 C13.29108114 95.5875237 13.47274278 93.54459697 13.625 91.5 C13.75068359 89.85644531 13.75068359 89.85644531 13.87890625 88.1796875 C13.93949219 87.33664063 14.00007813 86.49359375 14.0625 85.625 C12.4990085 85.71304127 10.93664611 85.82123146 9.375 85.9375 C8.50488281 85.99550781 7.63476562 86.05351562 6.73828125 86.11328125 C3.50667358 86.73129673 1.60023478 87.51396399 -0.9375 89.625 C-1.64627339 92.51183704 -1.64627339 92.51183704 -1.5625 95.6875 C-1.6015625 98.91015625 -1.6015625 98.91015625 -1.9375 101.625 C-5.27106181 103.84737454 -6.34176167 103.87242278 -10.2265625 103.85546875 C-11.25007813 103.85353516 -12.27359375 103.85160156 -13.328125 103.84960938 C-14.39546875 103.83736328 -15.4628125 103.82511719 -16.5625 103.8125 C-17.63757813 103.81185547 -18.71265625 103.81121094 -19.8203125 103.81054688 C-27.79727679 103.76522321 -27.79727679 103.76522321 -28.9375 102.625 C-29.03083705 101.02889018 -29.05495372 99.42866572 -29.05102539 97.82983398 C-29.05091209 96.29835976 -29.05091209 96.29835976 -29.05079651 94.73594666 C-29.04563522 93.6255452 -29.04047394 92.51514374 -29.03515625 91.37109375 C-29.0337413 90.24051041 -29.03232635 89.10992706 -29.03086853 87.94508362 C-29.02525019 84.31752935 -29.01269458 80.69003576 -29 77.0625 C-28.99498736 74.61002693 -28.99042405 72.1575529 -28.98632812 69.70507812 C-28.9752748 63.67836455 -28.95851884 57.65168661 -28.9375 51.625 C-24.50012288 51.53809747 -20.06296366 51.48464074 -15.625 51.4375 C-14.36236328 51.41236328 -13.09972656 51.38722656 -11.79882812 51.36132812 C-10.59033203 51.35166016 -9.38183594 51.34199219 -8.13671875 51.33203125 C-7.02127686 51.3163208 -5.90583496 51.30061035 -4.7565918 51.28442383 C-1.9375 51.625 -1.9375 51.625 -0.05004883 53.01831055 C1.0625 54.625 1.0625 54.625 1.0625 56.625 C1.69317383 55.8107959 2.32384766 54.9965918 2.97363281 54.15771484 C7.20169969 50.69091388 10.18344743 50.96310039 15.484375 51.1015625 C16.83526215 51.1086171 16.83526215 51.1086171 18.21343994 51.11581421 C21.08058054 51.13711425 23.94585523 51.1937347 26.8125 51.25 C28.75649307 51.26651018 30.7005058 51.28085746 32.64453125 51.29296875 C46.8668625 51.4293625 46.8668625 51.4293625 48.0625 52.625 C48.16845867 55.62776693 48.20927554 58.60765896 48.20776367 61.61108398 C48.21112228 62.55411377 48.2144809 63.49714355 48.21794128 64.46875 C48.22748225 67.60287778 48.22939596 70.73695233 48.23046875 73.87109375 C48.2336791 76.03963748 48.237043 78.20818098 48.24055481 80.37672424 C48.24655393 84.92897036 48.2483939 89.48119747 48.24780273 94.03344727 C48.24770106 99.87930183 48.2613556 105.72503508 48.27857494 111.57086086 C48.28966928 116.05142278 48.29172274 120.53195513 48.29119301 125.01252937 C48.29237692 127.16839071 48.29682152 129.32425273 48.30452538 131.48010063 C48.31427381 134.48999511 48.3114677 137.49962313 48.30541992 140.50952148 C48.31103943 141.40778152 48.31665894 142.30604156 48.32244873 143.23152161 C48.29081518 149.39668482 48.29081518 149.39668482 46.0625 151.625 C43.63682881 151.81213986 41.32752333 151.88085278 38.90234375 151.85546875 C38.19727188 151.85501053 37.49220001 151.85455231 36.76576233 151.8540802 C35.27538368 151.85105863 33.78500816 151.8431751 32.29467773 151.83081055 C30.00558367 151.81254456 27.71689373 151.81030091 25.42773438 151.81054688 C23.98176731 151.80563206 22.53580301 151.7998039 21.08984375 151.79296875 C20.05705544 151.79129951 20.05705544 151.79129951 19.00340271 151.78959656 C14.17855499 151.74105499 14.17855499 151.74105499 13.0625 150.625 C13.15187803 149.09980724 13.30787146 147.57818071 13.5 146.0625 C13.60183594 145.23621094 13.70367187 144.40992188 13.80859375 143.55859375 C13.93427734 142.60146484 13.93427734 142.60146484 14.0625 141.625 C12.92554688 142.09550781 11.78859375 142.56601563 10.6171875 143.05078125 C-12.7048644 152.53091861 -36.85081766 156.33501133 -60.875 146.9375 C-79.11938412 138.97274736 -95.19884784 125.13667162 -102.66699219 106.37719727 C-110.57775394 85.17906288 -110.70974077 62.12294744 -101.25219727 41.38696289 C-97.4850101 33.58920666 -92.82589779 27.00155512 -86.9375 20.625 C-85.92623047 19.45904297 -85.92623047 19.45904297 -84.89453125 18.26953125 C-63.59183497 -4.95160672 -28.82397 -8.26553533 0 0 Z " transform="translate(279.9375,52.375)" style="fill: #FC6D27;"/><path d="M0 0 C0.97565918 0.03577148 1.95131836 0.07154297 2.95654297 0.10839844 C26.6240819 1.07097906 49.96707599 4.46758845 73.27587891 8.57763672 C76.81492462 9.12635056 80.30511201 9.10746952 83.875 9.0625 C84.56335938 9.05798828 85.25171875 9.05347656 85.9609375 9.04882812 C87.64066335 9.03716336 89.32034375 9.01923271 91 9 C90.72683156 12.14862566 89.95413353 13.04230403 87.5859375 15.2265625 C86.52498711 16.0384246 85.45386749 16.83710361 84.375 17.625 C83.79379395 18.0573999 83.21258789 18.4897998 82.61376953 18.93530273 C80.75329579 20.30574762 78.87869611 21.65467077 77 23 C76.12021484 23.63977783 76.12021484 23.63977783 75.22265625 24.29248047 C51.73991004 41.24425132 24.42856744 51.12234231 -4.75390625 47.5390625 C-8.23663535 46.85300926 -11.5930783 45.99668566 -15 45 C-15.65145996 44.81195801 -16.30291992 44.62391602 -16.97412109 44.43017578 C-35.77245034 38.85323458 -54.97910099 27.88102744 -68 13 C-68 12.34 -68 11.68 -68 11 C-62.23604804 7.88971593 -56.80767134 5.85839802 -50.4375 4.375 C-49.08362183 4.05752808 -49.08362183 4.05752808 -47.70239258 3.73364258 C-32.14748117 0.29673515 -15.89321927 -0.65388519 0 0 Z " transform="translate(334,302)" style="fill: #FB6D26;"/><path d="M0 0 C21.41845027 -0.37741763 44.22763856 0.97674149 63.484375 11.125 C63.18955209 14.25299914 62.3994064 15.20856879 60.11328125 17.45703125 C44.80387584 29.84107257 29.5860415 39.75456341 10.484375 45.125 C8.80794922 45.60453125 8.80794922 45.60453125 7.09765625 46.09375 C-19.61832057 52.79601596 -46.09774435 44.74657484 -69.37695312 31.41259766 C-74.40395133 28.38606929 -78.94515301 24.79667625 -83.515625 21.125 C-85.7536375 19.42134996 -88.00941261 17.74193629 -90.265625 16.0625 C-92.015625 14.75 -93.765625 13.4375 -95.515625 12.125 C-95.185625 11.135 -94.855625 10.145 -94.515625 9.125 C-93.14700317 9.16524292 -93.14700317 9.16524292 -91.75073242 9.20629883 C-82.51715738 9.35925668 -73.93737025 8.47216034 -64.828125 6.8125 C-62.11502968 6.34225565 -59.39978979 5.88555715 -56.68359375 5.43359375 C-56.00312988 5.32012604 -55.32266602 5.20665833 -54.62158203 5.0897522 C-36.57570077 2.1343959 -18.26424393 0.64939534 0 0 Z " transform="translate(179.515625,301.875)" style="fill: #FB6D26;"/><path d="M0 0 C2.98768759 1.12038285 5.64758329 2.36500149 8.4375 3.9375 C19.39084465 9.44850484 32.93865924 9.86984961 44.96557617 11.15405273 C72.74286485 14.15854181 103.51662694 24.48587363 125 43 C125 43.99 125 44.98 125 46 C97.53675292 55.33834703 68.8927315 61.98614553 41.078125 49.640625 C23.50578286 40.27465584 12.32180655 26.26955375 2.375 9.375 C2.01986328 8.78315918 1.66472656 8.19131836 1.29882812 7.58154297 C0.3359375 5.8984375 0.3359375 5.8984375 -1 3 C-0.67 2.01 -0.34 1.02 0 0 Z " transform="translate(32,247)" style="fill: #FB6D27;"/><path d="M0 0 C-2.06176198 15.32003691 -17.25505556 32.26787112 -29.00390625 41.3125 C-48.00298159 55.19030825 -68.80117333 58.39398261 -91.79931641 55.22460938 C-103.5052835 53.36495274 -114.77884922 49.74038359 -126 46 C-125.65170533 43.30451783 -125.30332886 42.24918898 -123.16845703 40.49536133 C-121.97518799 39.79576294 -121.97518799 39.79576294 -120.7578125 39.08203125 C-119.86618408 38.55424072 -118.97455566 38.0264502 -118.0559082 37.48266602 C-116.60510864 36.65593384 -116.60510864 36.65593384 -115.125 35.8125 C-113.63456177 34.95192993 -113.63456177 34.95192993 -112.11401367 34.07397461 C-91.16151483 22.13236951 -70.98152046 14.28986842 -46.99414062 11.36962891 C-41.23781268 10.6590059 -35.49373266 9.86777631 -29.75 9.0625 C-28.61949219 8.9166748 -27.48898437 8.77084961 -26.32421875 8.62060547 C-18.37904318 7.50435092 -11.97269527 5.41816234 -5.125 1.25 C-3 0 -3 0 0 0 Z " transform="translate(478,247)" style="fill: #FB6D27;"/><path d="M0 0 C13.90381314 1.71668909 34.77647067 14.87721989 43.54882812 25.95605469 C47.34079992 31.29801248 49.43561422 36.49779723 51.25 42.75 C56.46175298 59.40465816 64.1071997 81.57503979 79 92 C78.505 93.98 78.505 93.98 78 96 C52.54669051 93.54511228 29.00321011 83.43611838 11.5625 64.375 C6.56860936 58.28076058 4.93854811 51.41113376 4.7890625 43.640625 C4.76271729 42.61493408 4.73637207 41.58924316 4.70922852 40.5324707 C4.68143311 39.44925537 4.6536377 38.36604004 4.625 37.25 C4.22096419 24.82747367 3.18699291 12.79970729 -1 1 C-0.67 0.67 -0.34 0.34 0 0 Z " transform="translate(158,207)" style="fill: #FA6D27;"/><path d="M0 0 C-0.41572266 1.57587891 -0.41572266 1.57587891 -0.83984375 3.18359375 C-1.20605253 4.60147902 -1.57191954 6.0194526 -1.9375 7.4375 C-2.21110352 8.46907227 -2.21110352 8.46907227 -2.49023438 9.52148438 C-5.07450561 19.62363556 -5.24753203 29.73432551 -5.4296875 40.1171875 C-5.71096148 49.32891038 -7.40076373 56.53435164 -13 64 C-13.59167969 64.79277344 -14.18335938 65.58554687 -14.79296875 66.40234375 C-26.50650625 80.18907373 -49.87725664 92.10233054 -68 94 C-72.00686002 94.13665296 -75.99310118 94.12203753 -80 94 C-78.61661748 90.85469745 -77.01853591 88.93683825 -74.5625 86.5625 C-62.68656303 73.43419149 -56.41925721 54.77567083 -50.7109375 38.2734375 C-43.60927056 18.34295285 -25.05252092 9.78157267 -7 1 C-6.2884375 0.59394531 -5.576875 0.18789062 -4.84375 -0.23046875 C-3 -1 -3 -1 0 0 Z " transform="translate(352,208)" style="fill: #FB6D27;"/><path d="M0 0 C0.99 0 1.98 0 3 0 C4.91314637 2.5433149 6.58500055 5.14050922 8.24414062 7.8515625 C14.03502467 16.80758703 23.54216707 21.12846676 32.625 26.1875 C53.66783218 38.1227268 71.44459071 53.52877965 86 73 C86.99359748 74.15138963 87.99287149 75.29792719 89 76.4375 C91 79 91 79 91 82 C66.95173039 82.67425055 38.76780497 81.68024881 19.2421875 65.75 C3.21944777 49.23843093 -0.23112652 24.27093849 -0.03515625 2.23828125 C-0.02355469 1.49964844 -0.01195313 0.76101562 0 0 Z " transform="translate(2,164)" style="fill: #FA6D28;"/><path d="M0 0 C0.99 0 1.98 0 3 0 C3.74234582 21.77547752 0.13295529 45.22007954 -14.25 62.3125 C-28.95515655 77.72486971 -51.74425858 80.15601077 -72 81 C-77.00050579 81.09281954 -81.99914568 81.06303598 -87 81 C-87.33 80.34 -87.66 79.68 -88 79 C-71.28762621 56.92597728 -53.69488539 39.29960313 -29.51171875 25.57421875 C-18.02716458 19.05286273 -8.70548767 13.26710429 -1.578125 1.9765625 C-1.05734375 1.32429687 -0.5365625 0.67203125 0 0 Z " transform="translate(504,165)" style="fill: #FB6D28;"/><path d="M0 0 C0.99 0 1.98 0 3 0 C3.1959375 1.13695313 3.391875 2.27390625 3.59375 3.4453125 C6.27722184 17.74471723 11.73920218 27.5065379 20.15234375 39.2734375 C33.60272331 59.12198915 42.58293971 83.1104506 45 107 C42 108 42 108 39.89379883 107.20239258 C39.08966553 106.77079834 38.28553223 106.3392041 37.45703125 105.89453125 C36.10460327 105.16979614 36.10460327 105.16979614 34.72485352 104.43041992 C33.76377686 103.89650635 32.8027002 103.36259277 31.8125 102.8125 C30.82886475 102.27020752 29.84522949 101.72791504 28.83178711 101.16918945 C16.15592493 94.02607375 1.37309077 85.04598931 -6.25 72.1875 C-6.70890625 71.43855469 -7.1678125 70.68960938 -7.640625 69.91796875 C-11.25432439 62.1609761 -12.53356522 54.82977869 -12.4375 46.3125 C-12.42920166 45.34989258 -12.42090332 44.38728516 -12.41235352 43.39550781 C-12.05924758 28.35143588 -6.70711618 13.41423237 0 0 Z " transform="translate(12,81)" style="fill: #FA6D29;"/><path d="M0 0 C4.46049889 9.81003191 8.014018 19.65018191 11 30 C11.18030762 30.61649414 11.36061523 31.23298828 11.54638672 31.86816406 C12.53801633 36.52850299 12.27130749 41.37962335 12.3125 46.125 C12.34150391 47.21554688 12.37050781 48.30609375 12.40039062 49.4296875 C12.50433963 62.79912856 7.00985203 72.91255106 -2.0625 82.5 C-10.49821642 90.57258955 -20.38136771 96.37701046 -30.5 102.0625 C-31.79127808 102.79702393 -31.79127808 102.79702393 -33.10864258 103.54638672 C-33.92872803 103.99643066 -34.74881348 104.44647461 -35.59375 104.91015625 C-36.32271484 105.31371338 -37.05167969 105.71727051 -37.80273438 106.13305664 C-40.33624907 107.13266894 -42.30005606 107.15852393 -45 107 C-40.00367887 79.45930303 -31.40884251 55.03703633 -15.1875 32.0625 C-8.7274441 22.84524211 -5.46888859 15.03114815 -3.578125 4.02734375 C-2.80903226 0 -2.80903226 0 0 0 Z " transform="translate(497,81)" style="fill: #FA6D28;"/><path d="M0 0 C12.72703124 4.68320059 19.84623261 16.98942682 25.5546875 28.60546875 C29.62403267 38.16293078 30.20781427 46.94731221 29.5625 57.125 C29.4627743 58.98426516 29.36512275 60.84364271 29.26953125 62.703125 C29.2226416 63.60482422 29.17575195 64.50652344 29.12744141 65.43554688 C28.08611112 77.71880433 28.08611112 77.71880433 32 89 C33.90747576 90.89291487 35.82089428 92.40198914 38 94 C37.505 95.485 37.505 95.485 37 97 C21.7807114 96.62961908 9.47040622 88.96040235 -0.875 78.1875 C-7.88367489 69.89536938 -11.29489863 61.75311618 -10.69921875 50.75390625 C-9.93422123 43.76973439 -7.31074027 37.20428071 -5.00512695 30.60913086 C-1.55858318 20.46692966 -0.44816576 10.65514103 0 0 Z " transform="translate(125,182)" style="fill: #FA6D28;"/><path d="M0 0 C0.66 0.33 1.32 0.66 2 1 C2.19280756 2.9902025 2.3710429 4.9827512 2.48095703 6.97924805 C3.00343952 16.34939586 4.88969579 24.38629251 8.125 33.1875 C12.15196788 44.35019091 14.94233024 55.54658186 10.375 67.0625 C9.26171875 69.08984375 9.26171875 69.08984375 8 71 C7.32904297 72.02287109 7.32904297 72.02287109 6.64453125 73.06640625 C-1.96387067 85.2289473 -14.21910689 93.97258816 -29 97 C-31.33300933 97.03888349 -33.66709801 97.0448635 -36 97 C-36 96.01 -36 95.02 -36 94 C-34.35328087 92.38850481 -32.56586622 91.08046715 -30.7265625 89.6953125 C-27.50840951 86.53540662 -27.03942091 83.64877472 -26.76953125 79.20703125 C-26.77271912 77.74212095 -26.78769058 76.27720367 -26.8125 74.8125 C-26.81677002 74.02512451 -26.82104004 73.23774902 -26.82543945 72.42651367 C-26.87653458 67.61927414 -27.13649546 62.85931059 -27.51635742 58.06811523 C-28.716221 42.25422133 -25.72642074 27.1915107 -15.34375 14.66796875 C-10.65572171 9.31960908 -5.55432199 4.44345759 0 0 Z " transform="translate(382,182)" style="fill: #FA6C27;"/><path d="M0 0 C0.99 0.33 1.98 0.66 3 1 C8.54070441 24.25117028 4.76717669 44.20910408 -3 66.375 C-4.0676931 69.4643719 -5.12873701 72.55599489 -6.1875 75.6484375 C-6.43864059 76.37985458 -6.68978119 77.11127167 -6.9485321 77.86485291 C-9.64520869 85.78091808 -12.07402262 93.66620355 -13 102 C-14.32 102 -15.64 102 -17 102 C-18.65991211 100.23095703 -18.65991211 100.23095703 -20.27734375 97.7578125 C-20.87353516 96.85546875 -21.46972656 95.953125 -22.08398438 95.0234375 C-23.00147461 93.58871094 -23.00147461 93.58871094 -23.9375 92.125 C-24.84918945 90.74828125 -24.84918945 90.74828125 -25.77929688 89.34375 C-33.81471423 77.03491219 -39.55451987 66.02054821 -38 51 C-34.98294846 39.25749827 -27.31315436 31.05164627 -18.890625 22.83984375 C-11.75576494 15.87715695 -5.89085464 8.01476822 0 0 Z " transform="translate(114,140)" style="fill: #FA6D28;"/><path d="M0 0 C1.2890625 1.6171875 1.2890625 1.6171875 2.625 3.875 C6.1791042 9.48258662 10.49209832 14.14934877 15 19 C17.29788086 21.53652176 19.58594581 24.08131918 21.8671875 26.6328125 C23.20934794 28.1224631 24.56677174 29.59863842 25.9453125 31.0546875 C34.08504809 39.8286882 37.41511429 48.64159996 37.26953125 60.5 C36.13586254 75.22126321 26.40775203 87.44200164 18 99 C17.22076172 100.12728516 17.22076172 100.12728516 16.42578125 101.27734375 C15.95527344 101.84582031 15.48476563 102.41429687 15 103 C14.34 103 13.68 103 13 103 C12.84031738 102.3694873 12.68063477 101.73897461 12.51611328 101.08935547 C9.25741425 88.34041015 5.70076429 75.80272362 1.41442871 63.36697388 C-5.92992914 42.03925824 -9.33747269 23.23486034 -4 1 C-3 0 -3 0 0 0 Z " transform="translate(396,140)" style="fill: #FA6D28;"/><path d="M0 0 C3.28099409 1.40103451 5.07414935 2.99346316 7.3125 5.75 C14.24553438 14.27780016 22.82186853 18.88296348 32.46289062 23.88085938 C40.77185817 28.37677015 48.69130636 34.35454989 51.53515625 43.796875 C54.81940239 59.36254577 50.22050655 73.45273866 45 88 C43.68 88 42.36 88 41 88 C40.79246094 87.39414063 40.58492188 86.78828125 40.37109375 86.1640625 C34.60714229 70.48804387 22.41461859 59.18982585 10.67211914 47.79638672 C4.17319763 41.4140698 -1.70402132 35.33700392 -2.15112305 25.7644043 C-2.10511963 24.62914307 -2.05911621 23.49388184 -2.01171875 22.32421875 C-1.96466797 21.08478516 -1.91761719 19.84535156 -1.86914062 18.56835938 C-1.80919922 17.28767578 -1.74925781 16.00699219 -1.6875 14.6875 C-1.63916016 13.38748047 -1.59082031 12.08746094 -1.54101562 10.74804688 C-1.14442049 1.14442049 -1.14442049 1.14442049 0 0 Z " transform="translate(398,97)" style="fill: #FA6D29;"/><path d="M0 0 C0.99 0.33 1.98 0.66 3 1 C3.25620591 5.5197235 3.47514803 10.04052068 3.6875 14.5625 C3.76033203 15.83931641 3.83316406 17.11613281 3.90820312 18.43164062 C4.42723723 30.18623644 1.7947674 36.28168195 -6 45 C-8.55175415 47.59470807 -11.15191629 50.13929805 -13.75 52.6875 C-24.95342081 63.72976688 -33.57860983 74.57926713 -40 89 C-40.66 89 -41.32 89 -42 89 C-42.96400982 86.50206261 -43.92127547 84.00186341 -44.875 81.5 C-45.27912109 80.45585937 -45.27912109 80.45585937 -45.69140625 79.390625 C-50.15626026 67.62954615 -52.39992025 54.35269267 -49 41.9375 C-44.44954881 31.84771865 -35.91163952 26.70868171 -26.4375 21.8125 C-17.21936551 16.96797248 -9.34988804 12.59372675 -3.0625 4.125 C-2.47597656 3.34382813 -1.88945313 2.56265625 -1.28515625 1.7578125 C-0.86105469 1.17773438 -0.43695313 0.59765625 0 0 Z " transform="translate(109,97)" style="fill: #FA6D29;"/><path d="M0 0 C2.72790033 5.45580067 1.59211645 14.04311297 -0.125 19.75 C-5.38162574 32.98801621 -16.13884967 41.35835513 -27.8125 48.8671875 C-42.27032204 58.17311632 -42.27032204 58.17311632 -53 71 C-53.99 71 -54.98 71 -56 71 C-57.59864925 65.62279774 -57.18439045 60.05987882 -57.1875 54.5 C-57.19974609 53.37851562 -57.21199219 52.25703125 -57.22460938 51.1015625 C-57.2415095 41.34455604 -56.78617109 31.44645071 -52.375 22.5625 C-51.92898437 21.61503906 -51.48296875 20.66757812 -51.0234375 19.69140625 C-46.25340145 13.34670579 -40.23307837 11.48770482 -32.609375 10.33398438 C-31.62453125 10.20314453 -30.6396875 10.07230469 -29.625 9.9375 C-20.03930541 8.61598933 -8.00207176 0 0 0 Z " transform="translate(118,0)" style="fill: #FA6D28;"/><path d="M0 0 C3.53817165 0.33170359 5.80423528 1.42748042 8.6875 3.375 C15.24945608 7.59599948 22.09728778 8.90296815 29.72021484 10.0168457 C44.86010171 12.27168977 44.86010171 12.27168977 49 17 C56.60796226 28.32588047 57.33962325 40.65473852 57.1875 53.9375 C57.18685547 55.03384766 57.18621094 56.13019531 57.18554688 57.25976562 C57.15958022 61.9943525 57.0527582 66.36733886 56 71 C53 71 53 71 51.39453125 69.5390625 C50.61142578 68.59160156 50.61142578 68.59160156 49.8125 67.625 C49.28269531 66.99851562 48.75289063 66.37203125 48.20703125 65.7265625 C47 64 47 64 47 62 C46.46117187 61.7628125 45.92234375 61.525625 45.3671875 61.28125 C42.34963988 59.6479899 39.82041345 57.62406646 37.125 55.5 C32.42281153 51.81926575 27.64016878 48.30118199 22.75 44.875 C12.19604686 37.38565787 1.94250591 29.51730208 -0.76171875 16.078125 C-1.38512434 10.64121065 -1.51597941 5.2877362 0 0 Z " transform="translate(391,0)" style="fill: #FB6D29;"/><path d="M0 0 C-0.2165625 0.845625 -0.433125 1.69125 -0.65625 2.5625 C-3.70725697 14.99252839 -2.66689076 23.13310618 0.64892578 35.40087891 C5.54452918 53.74827306 6.28577448 69.64886712 -3 87 C-8.07178001 86.13628282 -10.07934684 82.98829494 -13 79 C-14.69467165 76.36399018 -16.18499377 73.65720072 -17.625 70.875 C-18.01179932 70.13507813 -18.39859863 69.39515625 -18.79711914 68.6328125 C-22.02194204 62.29113916 -24.27582895 55.90621 -26 49 C-26.22300781 48.26136719 -26.44601563 47.52273437 -26.67578125 46.76171875 C-30.01861137 34.6865977 -28.94060558 21.82369023 -22.83203125 10.9140625 C-18.48463689 4.24524397 -12.69383581 1.6646477 -5.26953125 -0.58203125 C-3 -1 -3 -1 0 0 Z " transform="translate(50,28)" style="fill: #F96C29;"/><path d="M0 0 C8.91547634 1.07953576 16.17478756 4.05241833 21.875 11.25 C28.55189831 21.94689937 28.63206041 35.53714471 26.15625 47.6015625 C22.94299671 60.99780281 17.03614431 76.20281151 7 86 C4.796875 87.2265625 4.796875 87.2265625 3 88 C0.70666298 84.43549904 -0.81982498 81.0285717 -2.125 77 C-2.45757812 75.989375 -2.79015625 74.97875 -3.1328125 73.9375 C-7.11715346 60.44099368 -4.77423851 48.14895996 -1 35 C1.75903688 25.07208486 3.1203334 17.20125023 0.4375 7.140625 C-0.0579004 4.71670161 -0.06902122 2.46750868 0 0 Z " transform="translate(460,27)" style="fill: #FA6D29;"/><path d="M0 0 C1.56974447 6.12200344 0.87479277 11.62537302 -2.19140625 17.14453125 C-8.18835546 25.69059238 -16.39991529 29.93517135 -25.8125 33.9375 C-32.92395648 37.05517384 -39.57668288 40.20249183 -45.9765625 44.625 C-48 46 -48 46 -50.1953125 47.0234375 C-52.79270407 48.42895242 -53.13813389 50.27075731 -54 53 C-55.32 52.67 -56.64 52.34 -58 52 C-59.02973162 24.07447057 -59.02973162 24.07447057 -50.875 13.375 C-43.76194445 6.40054261 -33.26753241 6.43983962 -23.85546875 5.828125 C-16.8832601 5.2910067 -10.12961877 4.09651829 -3.83789062 0.90234375 C-2 0 -2 0 0 0 Z " transform="translate(117,64)" style="fill: #FA6D29;"/><path d="M0 0 C1.794375 0.6496875 1.794375 0.6496875 3.625 1.3125 C12.32978808 4.18685099 21.09334794 6.00181436 30.25 6.5 C37.59615135 6.92873162 44.14609731 7.63186798 49.9375 12.4375 C50.9584375 13.7059375 50.9584375 13.7059375 52 15 C52.50273437 15.62261719 53.00546875 16.24523437 53.5234375 16.88671875 C60.35351933 26.66204751 58.29162598 40.69837156 58 52 C54 52 54 52 51.5625 49.75 C50.716875 48.8425 49.87125 47.935 49 47 C45.2198673 43.67562798 41.1951925 41.4192064 36.6875 39.25 C35.99470947 38.90855957 35.30191895 38.56711914 34.58813477 38.21533203 C30.95053493 36.42379464 27.29846368 34.66382212 23.640625 32.9140625 C12.44791062 27.51964236 4.40088372 23.23078935 0 11 C-1.67265048 3.34530095 -1.67265048 3.34530095 0 0 Z " transform="translate(392,64)" style="fill: #F96D29;"/></svg>